<svg width="78" height="78" viewBox="0 0 78 78" fill="none" xmlns="http://www.w3.org/2000/svg">
<path d="M31.6725 48.016H18.8535L16.2359 56.1474C16.1685 56.4572 15.8902 56.6638 15.5804 56.6279H9.10127C8.72411 56.6279 8.62085 56.4213 8.72412 56.0082L19.8189 24.2056C19.9222 23.8598 20.0254 23.55 20.1646 23.137C20.3038 22.4141 20.3712 21.6552 20.3712 20.8964C20.3352 20.7258 20.4744 20.5507 20.645 20.5193H29.5667C29.8091 20.5193 29.9797 20.6226 30.0157 20.7932L42.5922 55.9364C42.6954 56.3136 42.5922 56.4887 42.2464 56.4887H35.0445C34.802 56.5246 34.5641 56.3495 34.4922 56.1115L31.668 47.8409V48.0115L31.6725 48.016ZM20.8516 41.1598H29.6026C29.3961 40.4369 29.1222 39.5749 28.8124 38.6813C28.5026 37.7519 28.1927 36.7506 27.8829 35.7179C27.5372 34.6493 27.2274 33.6166 26.8817 32.548C26.5359 31.4794 26.2261 30.4826 25.9523 29.4813C25.6784 28.516 25.4359 27.6225 25.1934 26.7918H25.1261C24.8162 28.2735 24.4391 29.7552 23.9542 31.2369C23.4378 32.8892 22.9215 34.6134 22.3692 36.3375C21.9202 38.0931 21.368 39.714 20.8516 41.1598Z" fill="#0028FF"/>
<path d="M62.887 44.9181H51.9628C52.1019 45.9867 52.4432 47.0553 53.0314 47.9847C53.651 48.9142 54.5131 49.637 55.5458 50.0501C56.9242 50.6338 58.4418 50.9481 59.955 50.9122C61.1628 50.8763 62.3661 50.773 63.538 50.5351C64.6066 50.3959 65.6393 50.122 66.6046 49.7448C66.7753 49.6056 66.8786 49.6775 66.8786 50.0187V55.29C66.8786 55.4292 66.8426 55.5639 66.8112 55.7031C66.7439 55.8063 66.672 55.8737 66.5687 55.9455C65.4642 56.4259 64.3282 56.7717 63.1249 56.9782C61.504 57.288 59.8876 57.4272 58.2308 57.3913C55.6132 57.3913 53.4085 56.9782 51.617 56.1835C49.9288 55.4606 48.4471 54.3246 47.2752 52.9103C46.1707 51.5678 45.3804 50.0501 44.9 48.3978C44.4196 46.7769 44.1771 45.0887 44.1771 43.369C44.1771 41.5102 44.451 39.6827 45.0392 37.8912C45.5915 36.1671 46.4536 34.5821 47.6255 33.1722C48.7614 31.7938 50.1757 30.6938 51.7966 29.899C53.4175 29.1088 55.3438 28.8304 57.5483 28.8304C59.3758 28.7945 61.1987 29.1402 62.887 29.899C64.3013 30.5187 65.5405 31.4481 66.5059 32.6559C67.4039 33.8278 68.1267 35.1388 68.5713 36.5846C69.0203 37.9631 69.2268 39.3774 69.2268 40.7873C69.2268 41.6134 69.1909 42.3363 69.1595 42.9919C69.0921 43.6474 69.0562 44.1278 69.0203 44.4376C68.9843 44.6801 68.7778 44.8866 68.5399 44.8866C68.3333 44.8866 67.9561 44.9226 67.4039 44.954C66.8516 45.0213 66.1961 45.0573 65.4058 45.0573C64.6156 45.0573 63.785 44.9181 62.8915 44.9181H62.887ZM51.9672 39.8848H59.2366C60.1346 39.8848 60.7856 39.8848 61.1987 39.8489C61.4726 39.8129 61.751 39.7456 61.989 39.575V39.2292C61.989 38.7802 61.9216 38.3672 61.7824 37.9541C61.1628 36.0234 59.3353 34.7168 57.3014 34.7841C55.4066 34.6809 53.6151 35.6821 52.7171 37.4018C52.304 38.192 52.0615 39.0227 51.9583 39.8803L51.9672 39.8848Z" fill="#0028FF"/>
<path fill-rule="evenodd" clip-rule="evenodd" d="M2.63564 2.63563H6.66316V6.66317H2.63564V2.63563ZM1.3605 0H7.94285C8.69268 0 9.30328 0.615143 9.30328 1.36048V7.94281C9.30328 8.69264 8.68819 9.30327 7.94285 9.30327H1.3605C0.610668 9.30327 1.52588e-05 8.69264 1.52588e-05 7.94281V1.36048C1.52588e-05 0.610653 0.615158 0 1.3605 0Z" fill="#0028FF"/>
<path fill-rule="evenodd" clip-rule="evenodd" d="M75.2794 6.66764H71.2519V2.64012H75.2794V6.66764ZM77.9195 1.36048V7.94281C77.9195 8.69264 77.3043 9.30327 76.559 9.30327H69.9767C69.2268 9.30327 68.6162 8.69264 68.6162 7.94281V1.36048C68.6162 0.610653 69.2313 0 69.9767 0H76.559C77.3088 0 77.9195 0.615143 77.9195 1.36048Z" fill="#0028FF"/>
<path fill-rule="evenodd" clip-rule="evenodd" d="M64.4225 3.56519H31.2145H13.021C12.7785 3.56519 12.581 3.70888 12.581 3.88399V6.35349C12.581 6.5286 12.783 6.66776 13.021 6.66776H64.427C64.9299 6.66776 65.343 6.52411 65.343 6.35349V3.88399C65.343 3.70888 64.9299 3.56519 64.427 3.56519H64.4225Z" fill="#0028FF"/>
<path fill-rule="evenodd" clip-rule="evenodd" d="M2.63563 75.2794V71.2518H6.66314V75.2794H2.63563ZM7.94284 77.9195H1.36048C0.610653 77.9195 0 77.3089 0 76.559V69.9767C0 69.2268 0.615143 68.6162 1.36048 68.6162H7.94284C8.69267 68.6162 9.30327 69.2313 9.30327 69.9767V76.559C9.30327 77.3089 8.68818 77.9195 7.94284 77.9195Z" fill="#0028FF"/>
<path fill-rule="evenodd" clip-rule="evenodd" d="M5.73823 64.4226V31.2146V13.0211C5.73823 12.7786 5.59456 12.5811 5.41945 12.5811H2.94995C2.77484 12.5811 2.63562 12.7831 2.63562 13.0211V64.4226C2.63562 64.9255 2.77933 65.3386 2.94995 65.3386H5.41945C5.59456 65.3386 5.73373 64.9255 5.73373 64.4226H5.73823Z" fill="#0028FF"/>
<path fill-rule="evenodd" clip-rule="evenodd" d="M74.8169 64.4226V31.2146V13.0211C74.8169 12.7786 74.6732 12.5811 74.4981 12.5811H72.0286C71.8535 12.5811 71.7098 12.7831 71.7098 13.0211V64.4226C71.7098 64.9255 71.8535 65.3386 72.0241 65.3386H74.4936C74.6687 65.3386 74.8079 64.9255 74.8079 64.4226H74.8169Z" fill="#0028FF"/>
<path fill-rule="evenodd" clip-rule="evenodd" d="M75.2794 75.2795H71.2519V71.2519H75.2794V75.2795ZM77.9195 69.9723V76.5546C77.9195 77.3045 77.3043 77.9151 76.559 77.9151H69.9767C69.2268 77.9151 68.6162 77.3045 68.6162 76.5546V69.9723C68.6162 69.2225 69.2313 68.6118 69.9767 68.6118H76.559C77.3088 68.6118 77.9195 69.227 77.9195 69.9723Z" fill="#0028FF"/>
<path fill-rule="evenodd" clip-rule="evenodd" d="M64.4225 72.1768H31.2145H13.021C12.7785 72.1768 12.581 72.3204 12.581 72.4956V74.9651C12.581 75.1402 12.783 75.2838 13.021 75.2838H64.427C64.9299 75.2838 65.343 75.1401 65.343 74.9695V72.5C65.343 72.3249 64.9299 72.1857 64.427 72.1857L64.4225 72.1768Z" fill="#0028FF"/>
</svg>
