<svg width="78" height="78" viewBox="0 0 78 78" fill="none" xmlns="http://www.w3.org/2000/svg">
<path d="M38.9732 49.7267H26.1946L23.586 57.7997C23.5186 58.1095 23.2447 58.3161 22.9349 58.2802H16.4783C16.1011 58.2802 15.9979 58.0736 16.1011 57.6605L27.16 25.822C27.2633 25.4807 27.3666 25.0991 27.5013 24.6905C27.6404 23.9676 27.7078 23.2133 27.7078 22.459C27.6719 22.2883 27.811 22.1177 27.9817 22.0818H36.8763C37.1502 22.0818 37.2894 22.1851 37.3209 22.3557L49.857 57.7324C49.9602 58.1096 49.8569 58.2802 49.5157 58.2802H42.3362C42.0937 58.3161 41.8558 58.141 41.7884 57.903L38.9732 49.7267ZM28.1882 42.7537H36.9123C36.7057 42.0309 36.4318 41.1733 36.122 40.2798C35.8122 39.3503 35.5024 38.358 35.1926 37.3253C34.8514 36.2612 34.5416 35.2285 34.1958 34.1644C33.8546 33.1003 33.5448 32.1035 33.2664 31.1067C32.9925 30.1458 32.75 29.2523 32.5121 28.4262H32.4447C32.1349 29.9034 31.7578 31.3806 31.2773 32.8578C30.761 34.5056 30.2491 36.2253 29.6968 37.9405C29.2164 39.6916 28.7001 41.308 28.1837 42.7493L28.1882 42.7537ZM57.5214 28.0894C56.3899 28.1253 55.2899 27.6763 54.4637 26.8861C53.6735 26.0285 53.2604 24.8925 53.2963 23.7251C53.2604 22.5577 53.7094 21.4577 54.531 20.6675C55.3572 19.8772 56.4527 19.4641 57.5887 19.4641C58.9267 19.4641 59.9595 19.8772 60.7138 20.6675C61.4681 21.4936 61.8811 22.5892 61.8452 23.7251C61.8811 24.8925 61.4681 26.0285 60.6419 26.8861C59.8517 27.7123 58.6843 28.1568 57.5169 28.0894H57.5214ZM53.6735 57.903V31.4569C53.6735 31.1157 53.8126 30.9765 54.118 30.9765H60.9203C61.2301 30.9765 61.3648 31.1471 61.3648 31.4569V57.903C61.3648 58.2802 61.2256 58.4508 60.9203 58.4508H54.1898C53.8486 58.4508 53.6735 58.2443 53.6735 57.903Z" fill="#0028FF"/>
<path fill-rule="evenodd" clip-rule="evenodd" d="M2.63563 2.63563H6.66314V6.66317H2.63563V2.63563ZM1.36046 0H7.94281C8.69264 0 9.30327 0.615143 9.30327 1.36048V7.94281C9.30327 8.69264 8.68815 9.30327 7.94281 9.30327H1.36046C0.610626 9.30327 0 8.69264 0 7.94281V1.36048C0 0.610653 0.615116 0 1.36046 0Z" fill="#0028FF"/>
<path fill-rule="evenodd" clip-rule="evenodd" d="M75.2793 6.66764H71.2518V2.64012H75.2793V6.66764ZM77.915 1.36048V7.94281C77.915 8.69264 77.2998 9.30327 76.5545 9.30327H69.9722C69.2223 9.30327 68.6117 8.69264 68.6117 7.94281V1.36048C68.6117 0.610653 69.2268 0 69.9722 0H76.5545C77.3043 0 77.915 0.615143 77.915 1.36048Z" fill="#0028FF"/>
<path fill-rule="evenodd" clip-rule="evenodd" d="M64.418 3.56519H31.21H13.0165C12.774 3.56519 12.5765 3.70888 12.5765 3.88399V6.35349C12.5765 6.5286 12.7785 6.66776 13.0165 6.66776H64.4225C64.9254 6.66776 65.3385 6.52411 65.3385 6.35349V3.88399C65.3385 3.70888 64.9254 3.56519 64.4225 3.56519H64.418Z" fill="#0028FF"/>
<path fill-rule="evenodd" clip-rule="evenodd" d="M2.63563 75.2794V71.2518H6.66315V75.2794H2.63563ZM7.94281 77.9195H1.36046C0.610628 77.9195 1.90735e-06 77.3089 1.90735e-06 76.559V69.9767C1.90735e-06 69.2268 0.615118 68.6162 1.36046 68.6162H7.94281C8.69264 68.6162 9.30327 69.2313 9.30327 69.9767V76.559C9.30327 77.3089 8.68815 77.9195 7.94281 77.9195Z" fill="#0028FF"/>
<path fill-rule="evenodd" clip-rule="evenodd" d="M5.73821 64.4226V31.2146V13.0211C5.73821 12.7786 5.59452 12.5811 5.41941 12.5811H2.94991C2.7748 12.5811 2.63563 12.7831 2.63563 13.0211V64.4226C2.63563 64.9255 2.77929 65.3386 2.94991 65.3386H5.41941C5.59452 65.3386 5.73371 64.9255 5.73371 64.4226H5.73821Z" fill="#0028FF"/>
<path fill-rule="evenodd" clip-rule="evenodd" d="M74.8124 64.4226V31.2146V13.0211C74.8124 12.7786 74.6687 12.5811 74.4936 12.5811H72.0241C71.849 12.5811 71.7053 12.7831 71.7053 13.0211V64.4226C71.7053 64.9255 71.849 65.3386 72.0196 65.3386H74.4891C74.6642 65.3386 74.8034 64.9255 74.8034 64.4226H74.8124Z" fill="#0028FF"/>
<path fill-rule="evenodd" clip-rule="evenodd" d="M75.2793 75.2795H71.2518V71.2519H75.2793V75.2795ZM77.915 69.9723V76.5546C77.915 77.3045 77.2998 77.9151 76.5545 77.9151H69.9722C69.2223 77.9151 68.6117 77.3045 68.6117 76.5546V69.9723C68.6117 69.2225 69.2268 68.6118 69.9722 68.6118H76.5545C77.3043 68.6118 77.915 69.227 77.915 69.9723Z" fill="#0028FF"/>
<path fill-rule="evenodd" clip-rule="evenodd" d="M64.418 72.1768H31.21H13.0165C12.774 72.1768 12.5765 72.3204 12.5765 72.4956V74.9651C12.5765 75.1402 12.7785 75.2838 13.0165 75.2838H64.4225C64.9254 75.2838 65.3385 75.1401 65.3385 74.9695V72.5C65.3385 72.3249 64.9254 72.1857 64.4225 72.1857L64.418 72.1768Z" fill="#0028FF"/>
</svg>
