<svg width="78" height="78" viewBox="0 0 78 78" fill="none" xmlns="http://www.w3.org/2000/svg">
<path fill-rule="evenodd" clip-rule="evenodd" d="M2.63564 2.64012H6.66316V6.66767H2.63564V2.64012ZM1.3605 0H7.94285C8.69268 0 9.30328 0.615143 9.30328 1.36048V7.94281C9.30328 8.69264 8.68819 9.30329 7.94285 9.30329H1.3605C0.610668 9.30329 1.52588e-05 8.69264 1.52588e-05 7.94281V1.36048C1.52588e-05 0.610653 0.615158 0 1.3605 0Z" fill="#0028FF"/>
<path fill-rule="evenodd" clip-rule="evenodd" d="M75.2794 6.66767H71.2519V2.64012H75.2794V6.66767ZM77.9195 1.36048V7.94281C77.9195 8.69264 77.3043 9.30329 76.559 9.30329H69.9767C69.2268 9.30329 68.6162 8.69264 68.6162 7.94281V1.36048C68.6162 0.610653 69.2313 0 69.9767 0H76.559C77.3088 0 77.9195 0.615143 77.9195 1.36048Z" fill="#0028FF"/>
<path fill-rule="evenodd" clip-rule="evenodd" d="M64.4225 3.56519H31.2145H13.021C12.7785 3.56519 12.581 3.70888 12.581 3.88399V6.35349C12.581 6.5286 12.783 6.66779 13.021 6.66779H64.427C64.9299 6.66779 65.343 6.52411 65.343 6.35349V3.88399C65.343 3.70888 64.9299 3.56519 64.427 3.56519H64.4225Z" fill="#0028FF"/>
<path fill-rule="evenodd" clip-rule="evenodd" d="M2.63563 75.2794V71.2518H6.66314V75.2794H2.63563ZM7.94284 77.9195H1.36048C0.610653 77.9195 0 77.3088 0 76.559V69.9766C0 69.2268 0.615143 68.6162 1.36048 68.6162H7.94284C8.69267 68.6162 9.30327 69.2313 9.30327 69.9766V76.559C9.30327 77.3088 8.68818 77.9195 7.94284 77.9195Z" fill="#0028FF"/>
<path fill-rule="evenodd" clip-rule="evenodd" d="M5.73823 64.4226V31.2146V13.0211C5.73823 12.7786 5.59456 12.5811 5.41945 12.5811H2.94995C2.77484 12.5811 2.63562 12.7831 2.63562 13.0211V64.4226C2.63562 64.9255 2.77933 65.3386 2.94995 65.3386H5.41945C5.59456 65.3386 5.73373 64.9255 5.73373 64.4226H5.73823Z" fill="#0028FF"/>
<path fill-rule="evenodd" clip-rule="evenodd" d="M74.8169 64.4226V31.2146V13.0211C74.8169 12.7786 74.6732 12.5811 74.4981 12.5811H72.0286C71.8535 12.5811 71.7098 12.7831 71.7098 13.0211V64.4226C71.7098 64.9255 71.8535 65.3386 72.0241 65.3386H74.4936C74.6687 65.3386 74.8079 64.9255 74.8079 64.4226H74.8169Z" fill="#0028FF"/>
<path fill-rule="evenodd" clip-rule="evenodd" d="M75.2794 75.2795H71.2519V71.2519H75.2794V75.2795ZM77.9195 69.9722V76.5546C77.9195 77.3044 77.3043 77.9151 76.559 77.9151H69.9767C69.2268 77.9151 68.6162 77.3044 68.6162 76.5546V69.9722C68.6162 69.2224 69.2313 68.6118 69.9767 68.6118H76.559C77.3088 68.6118 77.9195 69.2269 77.9195 69.9722Z" fill="#0028FF"/>
<path fill-rule="evenodd" clip-rule="evenodd" d="M64.4225 72.1768H31.2145H13.021C12.7785 72.1768 12.581 72.3204 12.581 72.4955V74.965C12.581 75.1401 12.783 75.2839 13.021 75.2839H64.427C64.9299 75.2839 65.343 75.1401 65.343 74.9695V72.5C65.343 72.3249 64.9299 72.1857 64.427 72.1857L64.4225 72.1768Z" fill="#0028FF"/>
<path d="M18.9613 28.9874C19.1858 26.4012 21.5295 24.21 24.1248 24.1606C31.7084 24.1606 39.2965 24.1606 46.8801 24.1606C48.51 24.2819 50.0545 25.1799 50.975 26.5314C51.406 27.1375 51.6754 27.8379 51.846 28.5608C54.0731 27.4563 56.3046 26.3518 58.5316 25.2472C58.6978 25.1529 58.9537 25.2787 58.9582 25.4762C58.9672 26.7289 58.9582 27.9816 58.9582 29.2343C58.9762 29.4903 58.8011 29.7237 58.5721 29.8225C52.4208 32.8757 46.2649 35.92 40.1136 38.9732C46.256 42.0129 52.3938 45.0571 58.5316 48.1013C58.7561 48.1911 58.9537 48.3932 58.9582 48.6491C58.9582 49.9063 58.9582 51.159 58.9582 52.4162C58.9762 52.6721 58.6618 52.8158 58.4643 52.6677C56.2687 51.5631 54.0461 50.5125 51.8685 49.3765C51.6844 49.8884 51.5631 50.4271 51.2848 50.9031C50.5574 52.2636 49.2329 53.2873 47.7332 53.6465C47.2348 53.7812 46.7185 53.7632 46.2066 53.7722H24.9958C24.5199 53.7722 24.0395 53.7767 23.5635 53.7363C21.1659 53.431 19.1364 51.3162 18.9478 48.905C18.9344 47.6927 18.9389 46.4759 18.9478 45.2636C18.9478 44.9493 19.2307 44.7204 19.4956 44.5991C23.2762 42.7313 27.0523 40.8455 30.8373 38.9866C27.0208 37.0874 23.1998 35.2016 19.3833 33.3068C19.1409 33.1766 18.9164 32.9296 18.9433 32.6378C18.9433 31.4255 18.9344 30.2132 18.9478 29.0009L18.9613 28.9874ZM23.1774 29.0143C22.9484 29.4723 23.0562 30.0021 23.0337 30.496C27.187 32.5524 31.3357 34.6224 35.4935 36.6653C39.6018 34.6269 43.7102 32.5884 47.823 30.5544C47.823 30.1862 47.8409 29.8136 47.814 29.4454C47.7377 28.7764 47.1091 28.2376 46.4401 28.2555C39.1124 28.2555 31.7847 28.2555 24.457 28.2555C23.9317 28.2376 23.4109 28.5339 23.1864 29.0098L23.1774 29.0143ZM23.0337 47.4413C23.0517 47.9397 22.9439 48.483 23.1864 48.941C23.4154 49.4079 23.9362 49.6953 24.4525 49.6773C31.7802 49.6773 39.1124 49.6773 46.4446 49.6773C46.9295 49.6818 47.4099 49.4169 47.6479 48.9859C47.9263 48.501 47.8005 47.9172 47.8275 47.3829C43.7102 45.349 39.5973 43.2835 35.471 41.272C31.3267 43.3284 27.178 45.3759 23.0382 47.4413H23.0337Z" fill="#0028FF"/>
</svg>
