<svg width="78" height="78" viewBox="0 0 78 78" fill="none" xmlns="http://www.w3.org/2000/svg">
<path fill-rule="evenodd" clip-rule="evenodd" d="M2.64012 2.64012H6.66765V6.66767H2.64012V2.64012ZM1.36047 0H7.94281C8.69264 0 9.30328 0.615143 9.30328 1.36048V7.94281C9.30328 8.69264 8.68815 9.30329 7.94281 9.30329H1.36047C0.610639 9.30329 0 8.69264 0 7.94281V1.36048C0 0.610653 0.615129 0 1.36047 0Z" fill="#0028FF"/>
<path fill-rule="evenodd" clip-rule="evenodd" d="M75.2793 6.66767H71.2518V2.64012H75.2793V6.66767ZM77.9195 1.36048V7.94281C77.9195 8.69264 77.3043 9.30329 76.559 9.30329H69.9766C69.2268 9.30329 68.6162 8.69264 68.6162 7.94281V1.36048C68.6162 0.610653 69.2313 0 69.9766 0H76.559C77.3088 0 77.9195 0.615143 77.9195 1.36048Z" fill="#0028FF"/>
<path fill-rule="evenodd" clip-rule="evenodd" d="M64.4225 3.56519H31.2145H13.021C12.7785 3.56519 12.581 3.70888 12.581 3.88399V6.35349C12.581 6.5286 12.783 6.66779 13.021 6.66779H64.427C64.9299 6.66779 65.343 6.52411 65.343 6.35349V3.88399C65.343 3.70888 64.9299 3.56519 64.427 3.56519H64.4225Z" fill="#0028FF"/>
<path fill-rule="evenodd" clip-rule="evenodd" d="M2.64013 75.2794V71.2518H6.66766V75.2794H2.64013ZM7.94731 77.9195H1.36497C0.615141 77.9195 0.00450134 77.3088 0.00450134 76.559V69.9766C0.00450134 69.2268 0.619631 68.6162 1.36497 68.6162H7.94731C8.69714 68.6162 9.30778 69.2313 9.30778 69.9766V76.559C9.30778 77.3088 8.69265 77.9195 7.94731 77.9195Z" fill="#0028FF"/>
<path fill-rule="evenodd" clip-rule="evenodd" d="M5.74271 64.4226V31.2146V13.0211C5.74271 12.7786 5.59904 12.5811 5.42393 12.5811H2.95443C2.77932 12.5811 2.64012 12.7831 2.64012 13.0211V64.4226C2.64012 64.9255 2.78381 65.3386 2.95443 65.3386H5.42393C5.59904 65.3386 5.73822 64.9255 5.73822 64.4226H5.74271Z" fill="#0028FF"/>
<path fill-rule="evenodd" clip-rule="evenodd" d="M74.8169 64.4226V31.2146V13.0211C74.8169 12.7786 74.6732 12.5811 74.4981 12.5811H72.0286C71.8535 12.5811 71.7098 12.7831 71.7098 13.0211V64.4226C71.7098 64.9255 71.8535 65.3386 72.0241 65.3386H74.4936C74.6687 65.3386 74.8079 64.9255 74.8079 64.4226H74.8169Z" fill="#0028FF"/>
<path fill-rule="evenodd" clip-rule="evenodd" d="M75.2793 75.2795H71.2518V71.2519H75.2793V75.2795ZM77.9195 69.9722V76.5546C77.9195 77.3044 77.3043 77.9151 76.559 77.9151H69.9766C69.2268 77.9151 68.6162 77.3044 68.6162 76.5546V69.9722C68.6162 69.2224 69.2313 68.6118 69.9766 68.6118H76.559C77.3088 68.6118 77.9195 69.2269 77.9195 69.9722Z" fill="#0028FF"/>
<path fill-rule="evenodd" clip-rule="evenodd" d="M64.4225 72.1768H31.2145H13.021C12.7785 72.1768 12.581 72.3204 12.581 72.4955V74.965C12.581 75.1401 12.783 75.2839 13.021 75.2839H64.427C64.9299 75.2839 65.343 75.1401 65.343 74.9695V72.5C65.343 72.3249 64.9299 72.1857 64.427 72.1857L64.4225 72.1768Z" fill="#0028FF"/>
<path d="M39.714 63.6906H38.2503C38.183 63.6636 38.1156 63.6592 38.0438 63.6592C37.2625 63.6233 36.4857 63.5604 35.7134 63.4527C34.2722 63.2641 32.8578 62.9497 31.4749 62.5097C29.1087 61.7509 26.9041 60.6643 24.8611 59.25C22.9663 57.9344 21.2916 56.3809 19.8278 54.5893C18.1082 52.488 16.7657 50.1712 15.8138 47.6254C14.9607 45.3624 14.4533 43.0231 14.2962 40.6075C14.2917 40.4773 14.2692 40.3471 14.2288 40.2169V37.6621C14.2737 37.5498 14.2917 37.4331 14.2962 37.3163C14.3276 36.7371 14.3905 36.1624 14.4623 35.5877C14.835 32.8308 15.6566 30.2132 16.9138 27.7347C17.7849 26.024 18.84 24.4345 20.0793 22.9708C21.3095 21.516 22.688 20.2184 24.2146 19.0824C26.7065 17.2326 29.4454 15.8946 32.4402 15.0774C33.895 14.6823 35.3767 14.4174 36.8809 14.2961C37.1458 14.2692 37.4286 14.2916 37.6935 14.2288H40.2034C40.3965 14.2826 40.5941 14.2557 40.7872 14.2737C41.7795 14.359 42.7672 14.4847 43.7506 14.6778C46.8397 15.2884 49.6998 16.4423 52.3489 18.1485C54.4053 19.4731 56.2193 21.067 57.8043 22.9259C59.0794 24.4166 60.157 26.0375 61.0416 27.7886C62.0832 29.8585 62.8286 32.0271 63.2551 34.3036C63.4796 35.5069 63.6457 36.7282 63.6502 37.9584C63.6502 38.0392 63.6682 38.1246 63.6772 38.2054V39.6691C63.6502 39.7634 63.6502 39.8622 63.6457 39.9609C63.6457 40.1989 63.6458 40.4324 63.6278 40.6704C63.5155 42.1745 63.282 43.6562 62.9049 45.1244C62.191 47.8768 61.0416 50.4316 59.4431 52.7844C58.2578 54.5355 56.8703 56.116 55.2809 57.5123C53.6959 58.9042 51.9628 60.0762 50.0814 61.028C47.9128 62.1191 45.6319 62.8779 43.2432 63.2955C42.3227 63.4571 41.3978 63.5604 40.4684 63.6188C40.2214 63.6457 39.961 63.6412 39.7051 63.6951L39.714 63.6906ZM29.7193 51.8909C30.1279 51.9044 30.5904 51.855 31.0484 51.7562C32.4088 51.4554 33.5627 50.8357 34.4518 49.7357C34.9906 49.0667 35.4441 48.3393 35.8392 47.576C36.2972 46.6735 36.6833 45.7351 37.02 44.7877C37.4286 43.6383 37.7788 42.4664 38.0438 41.2765C38.1919 40.612 38.0258 40.1944 37.2939 39.9654C36.3645 39.6736 35.4261 39.4132 34.4652 39.2021C32.8803 38.8564 31.2863 38.6319 29.6564 38.6858C29.1985 38.7038 28.736 38.7531 28.2825 38.834C26.9669 39.0629 25.8489 39.6736 24.933 40.6344C23.3749 42.2733 22.7508 44.2309 23.137 46.4625C23.6892 49.6504 26.509 51.9178 29.7148 51.8909H29.7193ZM32.3504 29.0413C32.3325 29.5082 32.4178 30.0156 32.5615 30.5275C32.8354 31.4973 33.2889 32.3863 33.8232 33.2215C35.04 35.1297 36.5755 36.7641 38.2413 38.2772C38.376 38.4029 38.5422 38.5062 38.7128 38.587C38.8879 38.6723 39.0585 38.6723 39.2426 38.6005C39.4177 38.5242 39.5704 38.4209 39.7006 38.2817C40.2798 37.7115 40.85 37.1367 41.3978 36.5486C42.1701 35.7089 42.902 34.8468 43.5665 33.9219C44.1681 33.0823 44.7114 32.2022 45.1065 31.2459C45.5017 30.294 45.6947 29.3152 45.5645 28.2825C45.349 26.5807 44.6216 25.1395 43.3195 24.008C41.7839 22.6745 39.9969 22.1402 37.9809 22.4365C34.7077 22.9214 32.3325 25.804 32.3459 29.0413H32.3504ZM48.4875 51.8505C48.6491 51.846 48.941 51.8505 49.2329 51.8056C51.195 51.5137 52.7485 50.5619 53.8441 48.9006C54.7017 47.5895 55.0474 46.1347 54.8858 44.5767C54.7376 43.1174 54.1449 41.8378 53.1481 40.7647C52.2771 39.8352 51.2399 39.1887 49.9872 38.9148C49.2957 38.7666 48.5953 38.7037 47.8948 38.6903C47.0642 38.6768 46.238 38.7531 45.4164 38.8654C43.7775 39.0944 42.1746 39.485 40.5986 39.9834C40.4369 40.0328 40.2888 40.1091 40.1586 40.2124C39.9924 40.3471 39.8981 40.5177 39.8981 40.7332C39.8981 40.9218 39.9161 41.1059 39.961 41.2945C40.0598 41.6672 40.1496 42.0398 40.2484 42.408C40.7063 44.0873 41.2676 45.7261 42.0309 47.2886C42.4709 48.1911 42.9828 49.0397 43.6338 49.803C44.1322 50.3822 44.7069 50.8537 45.3984 51.1815C46.3413 51.6349 47.3201 51.8774 48.4965 51.8505H48.4875Z" fill="#0028FF"/>
</svg>
