<svg width="78" height="78" viewBox="0 0 78 78" fill="none" xmlns="http://www.w3.org/2000/svg">
<path fill-rule="evenodd" clip-rule="evenodd" d="M2.63563 2.64012H6.66314V6.66767H2.63563V2.64012ZM1.36046 0H7.94281C8.69264 0 9.30327 0.615143 9.30327 1.36048V7.94281C9.30327 8.69264 8.68815 9.30329 7.94281 9.30329H1.36046C0.610626 9.30329 0 8.69264 0 7.94281V1.36048C0 0.610653 0.615116 0 1.36046 0Z" fill="#0028FF"/>
<path fill-rule="evenodd" clip-rule="evenodd" d="M75.2793 6.66767H71.2518V2.64012H75.2793V6.66767ZM77.915 1.36048V7.94281C77.915 8.69264 77.2998 9.30329 76.5545 9.30329H69.9722C69.2223 9.30329 68.6117 8.69264 68.6117 7.94281V1.36048C68.6117 0.610653 69.2268 0 69.9722 0H76.5545C77.3043 0 77.915 0.615143 77.915 1.36048Z" fill="#0028FF"/>
<path fill-rule="evenodd" clip-rule="evenodd" d="M64.418 3.56519H31.21H13.0165C12.774 3.56519 12.5765 3.70888 12.5765 3.88399V6.35349C12.5765 6.5286 12.7785 6.66779 13.0165 6.66779H64.4225C64.9254 6.66779 65.3385 6.52411 65.3385 6.35349V3.88399C65.3385 3.70888 64.9254 3.56519 64.4225 3.56519H64.418Z" fill="#0028FF"/>
<path fill-rule="evenodd" clip-rule="evenodd" d="M2.63563 75.2794V71.2518H6.66315V75.2794H2.63563ZM7.94281 77.9195H1.36046C0.610628 77.9195 1.90735e-06 77.3088 1.90735e-06 76.559V69.9766C1.90735e-06 69.2268 0.615118 68.6162 1.36046 68.6162H7.94281C8.69264 68.6162 9.30327 69.2313 9.30327 69.9766V76.559C9.30327 77.3088 8.68815 77.9195 7.94281 77.9195Z" fill="#0028FF"/>
<path fill-rule="evenodd" clip-rule="evenodd" d="M5.73821 64.4226V31.2146V13.0211C5.73821 12.7786 5.59452 12.5811 5.41941 12.5811H2.94991C2.7748 12.5811 2.63563 12.7831 2.63563 13.0211V64.4226C2.63563 64.9255 2.77929 65.3386 2.94991 65.3386H5.41941C5.59452 65.3386 5.73371 64.9255 5.73371 64.4226H5.73821Z" fill="#0028FF"/>
<path fill-rule="evenodd" clip-rule="evenodd" d="M74.8124 64.4226V31.2146V13.0211C74.8124 12.7786 74.6687 12.5811 74.4936 12.5811H72.0241C71.849 12.5811 71.7053 12.7831 71.7053 13.0211V64.4226C71.7053 64.9255 71.849 65.3386 72.0196 65.3386H74.4891C74.6642 65.3386 74.8034 64.9255 74.8034 64.4226H74.8124Z" fill="#0028FF"/>
<path fill-rule="evenodd" clip-rule="evenodd" d="M75.2793 75.2795H71.2518V71.2519H75.2793V75.2795ZM77.915 69.9722V76.5546C77.915 77.3044 77.2998 77.9151 76.5545 77.9151H69.9722C69.2223 77.9151 68.6117 77.3044 68.6117 76.5546V69.9722C68.6117 69.2224 69.2268 68.6118 69.9722 68.6118H76.5545C77.3043 68.6118 77.915 69.2269 77.915 69.9722Z" fill="#0028FF"/>
<path fill-rule="evenodd" clip-rule="evenodd" d="M64.418 72.1768H31.21H13.0165C12.774 72.1768 12.5765 72.3204 12.5765 72.4955V74.965C12.5765 75.1401 12.7785 75.2839 13.0165 75.2839H64.4225C64.9254 75.2839 65.3385 75.1401 65.3385 74.9695V72.5C65.3385 72.3249 64.9254 72.1857 64.4225 72.1857L64.418 72.1768Z" fill="#0028FF"/>
<path d="M46.3682 31.5288C50.4631 31.5288 53.7812 34.8469 53.7812 38.9418C53.7812 43.0367 50.4631 46.3548 46.3682 46.3548C42.2733 46.3548 38.9552 43.0367 38.9552 38.9418C38.9552 34.8469 42.2733 31.5288 46.3682 31.5288Z" fill="#0028FF"/>
<path d="M53.8216 23.4063V24.7893C53.8216 28.5115 50.8043 31.5288 47.0776 31.5288H38.9552V54.5804C38.9552 58.2667 35.9649 61.2571 32.2786 61.2571H30.8957C27.1376 61.2571 24.0888 58.2083 24.0888 54.4502V53.0673C24.0888 49.381 27.0792 46.3907 30.7655 46.3907H30.8328C27.1106 46.3907 24.0888 43.3734 24.0888 39.6512V38.2682C24.0888 34.546 27.1061 31.5243 30.8328 31.5243C27.1106 31.5243 24.0888 28.507 24.0888 24.7848V23.4018C24.0888 19.6796 27.1061 16.6624 30.8328 16.6624H47.0776C50.7999 16.6624 53.8216 19.6796 53.8216 23.4018V23.4063Z" fill="#0028FF"/>
</svg>
