<svg width="78" height="78" viewBox="0 0 78 78" fill="none" xmlns="http://www.w3.org/2000/svg">
<path d="M39.1214 57.023H17.3808C16.9947 57.023 16.833 56.8299 16.833 56.4123V21.341C16.8016 21.1165 16.9632 20.892 17.2192 20.8605H24.0574C24.2191 20.8291 24.4436 20.9548 24.4436 21.1479V50.05H40.3068C40.6615 50.05 40.7558 50.2116 40.6929 50.5304L39.6961 56.5021C39.6961 56.6638 39.6018 56.8254 39.503 56.9197C39.3728 56.9826 39.2471 57.014 39.1169 57.014L39.1214 57.023Z" fill="#0028FF"/>
<path d="M44.6126 29.5665H50.6202C50.975 29.5665 51.2309 29.7911 51.3251 30.1143C51.4554 30.3388 51.5497 30.6262 51.6125 30.918C51.6754 31.2727 51.7427 31.623 51.7741 31.9777C51.8056 32.3638 51.837 32.7814 51.837 33.199C52.8652 32.0091 54.1179 31.0168 55.4964 30.2445C57.0679 29.378 58.8369 28.9604 60.6015 29.0233C60.826 28.9918 61.0505 29.1535 61.082 29.4094V36.2477C61.082 36.535 60.9203 36.6338 60.5341 36.6338C58.3161 36.5036 56.0711 36.9212 54.0461 37.7877C53.3726 38.111 52.6991 38.4927 52.1828 39.0719V56.5739C52.1828 56.9286 52.0525 57.0543 51.7338 57.0543H45.0526C44.7653 57.0858 44.5408 56.9241 44.5049 56.6368V37.4959C44.5049 36.6608 44.5049 35.8256 44.4735 34.9276C44.442 34.0296 44.442 33.1271 44.4106 32.2605C44.3792 31.4883 44.3163 30.7519 44.2175 29.9796C44.1861 29.818 44.2804 29.6249 44.442 29.5935C44.5049 29.5306 44.5363 29.5306 44.6036 29.5621L44.6126 29.5665Z" fill="#0028FF"/>
<path fill-rule="evenodd" clip-rule="evenodd" d="M2.64012 2.63563H6.66764V6.66317H2.64012V2.63563ZM1.36048 0H7.94278C8.69261 0 9.30327 0.615143 9.30327 1.36048V7.94281C9.30327 8.69264 8.68812 9.30327 7.94278 9.30327H1.36048C0.610653 9.30327 0 8.69264 0 7.94281V1.36048C0 0.610653 0.615143 0 1.36048 0Z" fill="#0028FF"/>
<path fill-rule="evenodd" clip-rule="evenodd" d="M75.2794 6.66764H71.2518V2.64012H75.2794V6.66764ZM77.9195 1.36048V7.94281C77.9195 8.69264 77.3044 9.30327 76.559 9.30327H69.9767C69.2268 9.30327 68.6162 8.69264 68.6162 7.94281V1.36048C68.6162 0.610653 69.2313 0 69.9767 0H76.559C77.3088 0 77.9195 0.615143 77.9195 1.36048Z" fill="#0028FF"/>
<path fill-rule="evenodd" clip-rule="evenodd" d="M64.4225 3.56519H31.2145H13.021C12.7785 3.56519 12.581 3.70888 12.581 3.88399V6.35349C12.581 6.5286 12.783 6.66776 13.021 6.66776H64.427C64.9299 6.66776 65.343 6.52411 65.343 6.35349V3.88399C65.343 3.70888 64.9299 3.56519 64.427 3.56519H64.4225Z" fill="#0028FF"/>
<path fill-rule="evenodd" clip-rule="evenodd" d="M2.64015 75.2794V71.2518H6.66767V75.2794H2.64015ZM7.94281 77.9195H1.36051C0.610684 77.9195 3.05176e-05 77.3089 3.05176e-05 76.559V69.9767C3.05176e-05 69.2268 0.615174 68.6162 1.36051 68.6162H7.94281C8.69264 68.6162 9.3033 69.2313 9.3033 69.9767V76.559C9.3033 77.3089 8.68815 77.9195 7.94281 77.9195Z" fill="#0028FF"/>
<path fill-rule="evenodd" clip-rule="evenodd" d="M5.74274 64.4226V31.2146V13.0211C5.74274 12.7786 5.59902 12.5811 5.42391 12.5811H2.95441C2.7793 12.5811 2.64014 12.7831 2.64014 13.0211V64.4226C2.64014 64.9255 2.78379 65.3386 2.95441 65.3386H5.42391C5.59902 65.3386 5.73825 64.9255 5.73825 64.4226H5.74274Z" fill="#0028FF"/>
<path fill-rule="evenodd" clip-rule="evenodd" d="M74.8169 64.4226V31.2146V13.0211C74.8169 12.7786 74.6732 12.5811 74.4981 12.5811H72.0286C71.8535 12.5811 71.7098 12.7831 71.7098 13.0211V64.4226C71.7098 64.9255 71.8535 65.3386 72.0241 65.3386H74.4936C74.6687 65.3386 74.8079 64.9255 74.8079 64.4226H74.8169Z" fill="#0028FF"/>
<path fill-rule="evenodd" clip-rule="evenodd" d="M75.2794 75.2795H71.2518V71.2519H75.2794V75.2795ZM77.9195 69.9723V76.5546C77.9195 77.3045 77.3044 77.9151 76.559 77.9151H69.9767C69.2268 77.9151 68.6162 77.3045 68.6162 76.5546V69.9723C68.6162 69.2225 69.2313 68.6118 69.9767 68.6118H76.559C77.3088 68.6118 77.9195 69.227 77.9195 69.9723Z" fill="#0028FF"/>
<path fill-rule="evenodd" clip-rule="evenodd" d="M64.4225 72.1768H31.2145H13.021C12.7785 72.1768 12.581 72.3204 12.581 72.4956V74.9651C12.581 75.1402 12.783 75.2838 13.021 75.2838H64.427C64.9299 75.2838 65.343 75.1401 65.343 74.9695V72.5C65.343 72.3249 64.9299 72.1857 64.427 72.1857L64.4225 72.1768Z" fill="#0028FF"/>
</svg>
