<svg width="78" height="78" viewBox="0 0 78 78" fill="none" xmlns="http://www.w3.org/2000/svg">
<path d="M15.2256 56.6953V21.3186C15.2256 21.0761 15.3289 20.9414 15.5668 20.9414C16.1505 20.9414 16.6983 20.9414 17.4886 20.9055C18.3147 20.8696 19.1723 20.8696 20.0972 20.8381C21.0267 20.8022 22.019 20.8022 23.0876 20.7708C24.1517 20.7349 25.1844 20.7349 26.2126 20.7349C29.0279 20.7349 31.3627 21.0761 33.2889 21.799C35.0041 22.3827 36.5845 23.3436 37.8911 24.6142C38.9912 25.7143 39.8488 27.0523 40.3965 28.5295C40.9129 29.9708 41.1868 31.448 41.1868 32.9926C41.1868 35.947 40.4998 38.3851 39.1259 40.3068C37.7519 42.2285 35.8302 43.6743 33.5942 44.4959C31.2594 45.3535 28.6821 45.6634 25.8669 45.6634C25.0407 45.6634 24.4929 45.6633 24.1517 45.6274C23.8105 45.5915 23.3256 45.5915 22.6745 45.5915V56.6189C22.7104 56.8614 22.5353 57.0634 22.2973 57.0994H15.6342C15.3603 57.0994 15.2211 56.9602 15.2211 56.6549V56.6908L15.2256 56.6953ZM22.7149 27.6046V39.1439C23.1954 39.1798 23.6443 39.2112 24.0529 39.2112H25.8714C27.2094 39.2112 28.5519 39.0047 29.8226 38.5916C30.9226 38.2818 31.8835 37.6307 32.6378 36.7732C33.3607 35.9156 33.7019 34.7482 33.7019 33.235C33.7379 32.1709 33.4595 31.1068 32.9117 30.1773C32.328 29.2838 31.5018 28.5968 30.5096 28.2197C29.2389 27.7033 27.8649 27.4968 26.4551 27.5327C25.5616 27.5327 24.7713 27.5327 24.1203 27.5687C23.4333 27.5327 22.9529 27.5686 22.7104 27.6046H22.7149Z" fill="#0028FF"/>
<path d="M46.1392 29.6295H52.1514C52.4926 29.6295 52.771 29.872 52.8742 30.1773C52.9775 30.4512 53.0449 30.7251 53.0808 31.0349C53.1481 31.3761 53.22 31.7578 53.2514 32.099C53.2873 32.4762 53.3188 32.8892 53.3188 33.3337C54.347 32.1304 55.5862 31.1336 56.9961 30.3793C58.5765 29.4858 60.395 29.0413 62.2179 29.0413C62.4604 29.0054 62.6625 29.1805 62.6984 29.4185V36.2522C62.6984 36.5261 62.5277 36.6294 62.1506 36.6294C60.9158 36.5935 59.6452 36.6968 58.4418 36.9707C57.4451 37.1772 56.4842 37.487 55.5548 37.9001C54.9037 38.2099 54.2841 38.623 53.8037 39.1707V56.6862C53.8037 57.0275 53.6645 57.1667 53.3592 57.1667H46.5927C46.3189 57.2026 46.0764 57.0275 46.0449 56.7536V37.5858C46.0449 36.7596 46.045 35.902 46.009 35.0085C45.9731 34.115 45.9731 33.2215 45.9417 32.328C45.9417 31.5377 45.8743 30.7834 45.8025 29.9932C45.7666 29.8226 45.8698 29.652 46.0449 29.616C46.0449 29.5801 46.1123 29.5801 46.1482 29.616L46.1392 29.6295Z" fill="#0028FF"/>
<path fill-rule="evenodd" clip-rule="evenodd" d="M2.64012 2.63563H6.66765V6.66317H2.64012V2.63563ZM1.36047 0H7.94281C8.69264 0 9.30328 0.615143 9.30328 1.36048V7.94281C9.30328 8.69264 8.68815 9.30327 7.94281 9.30327H1.36047C0.610639 9.30327 0 8.69264 0 7.94281V1.36048C0 0.610653 0.615129 0 1.36047 0Z" fill="#0028FF"/>
<path fill-rule="evenodd" clip-rule="evenodd" d="M75.2793 6.66764H71.2518V2.64012H75.2793V6.66764ZM77.9195 1.36048V7.94281C77.9195 8.69264 77.3043 9.30327 76.559 9.30327H69.9766C69.2268 9.30327 68.6162 8.69264 68.6162 7.94281V1.36048C68.6162 0.610653 69.2313 0 69.9766 0H76.559C77.3088 0 77.9195 0.615143 77.9195 1.36048Z" fill="#0028FF"/>
<path fill-rule="evenodd" clip-rule="evenodd" d="M64.4225 3.56519H31.2145H13.021C12.7785 3.56519 12.581 3.70888 12.581 3.88399V6.35349C12.581 6.5286 12.783 6.66776 13.021 6.66776H64.427C64.9299 6.66776 65.343 6.52411 65.343 6.35349V3.88399C65.343 3.70888 64.9299 3.56519 64.427 3.56519H64.4225Z" fill="#0028FF"/>
<path fill-rule="evenodd" clip-rule="evenodd" d="M2.64013 75.2794V71.2518H6.66766V75.2794H2.64013ZM7.94731 77.9195H1.36497C0.615141 77.9195 0.00450134 77.3089 0.00450134 76.559V69.9767C0.00450134 69.2268 0.619631 68.6162 1.36497 68.6162H7.94731C8.69714 68.6162 9.30778 69.2313 9.30778 69.9767V76.559C9.30778 77.3089 8.69265 77.9195 7.94731 77.9195Z" fill="#0028FF"/>
<path fill-rule="evenodd" clip-rule="evenodd" d="M5.74271 64.4226V31.2146V13.0211C5.74271 12.7786 5.59904 12.5811 5.42393 12.5811H2.95443C2.77932 12.5811 2.64012 12.7831 2.64012 13.0211V64.4226C2.64012 64.9255 2.78381 65.3386 2.95443 65.3386H5.42393C5.59904 65.3386 5.73822 64.9255 5.73822 64.4226H5.74271Z" fill="#0028FF"/>
<path fill-rule="evenodd" clip-rule="evenodd" d="M74.8169 64.4226V31.2146V13.0211C74.8169 12.7786 74.6732 12.5811 74.4981 12.5811H72.0286C71.8535 12.5811 71.7098 12.7831 71.7098 13.0211V64.4226C71.7098 64.9255 71.8535 65.3386 72.0241 65.3386H74.4936C74.6687 65.3386 74.8079 64.9255 74.8079 64.4226H74.8169Z" fill="#0028FF"/>
<path fill-rule="evenodd" clip-rule="evenodd" d="M75.2793 75.2795H71.2518V71.2519H75.2793V75.2795ZM77.9195 69.9723V76.5546C77.9195 77.3045 77.3043 77.9151 76.559 77.9151H69.9766C69.2268 77.9151 68.6162 77.3045 68.6162 76.5546V69.9723C68.6162 69.2225 69.2313 68.6118 69.9766 68.6118H76.559C77.3088 68.6118 77.9195 69.227 77.9195 69.9723Z" fill="#0028FF"/>
<path fill-rule="evenodd" clip-rule="evenodd" d="M64.4225 72.1768H31.2145H13.021C12.7785 72.1768 12.581 72.3204 12.581 72.4956V74.9651C12.581 75.1402 12.783 75.2838 13.021 75.2838H64.427C64.9299 75.2838 65.343 75.1401 65.343 74.9695V72.5C65.343 72.3249 64.9299 72.1857 64.427 72.1857L64.4225 72.1768Z" fill="#0028FF"/>
</svg>
