<svg width="78" height="78" viewBox="0 0 78 78" fill="none" xmlns="http://www.w3.org/2000/svg">
<path d="M14.157 56.3359V20.9907C14.157 20.7482 14.2602 20.6135 14.4982 20.6135C15.0819 20.6135 15.6297 20.6135 16.4199 20.5776C17.2461 20.5417 18.1037 20.5417 19.0286 20.5102C19.958 20.4743 20.9503 20.4743 22.0189 20.4429C23.0831 20.407 24.1158 20.407 25.144 20.407C27.9592 20.407 30.294 20.7482 32.2202 21.4711C33.9354 22.0548 35.5159 23.0157 36.8225 24.2863C37.9225 25.3864 38.7801 26.7244 39.3279 28.2016C39.8442 29.6429 40.1181 31.1201 40.1181 32.6647C40.1181 35.6191 39.4312 38.0572 38.0572 39.9789C36.6833 41.9006 34.7616 43.3464 32.5255 44.1681C30.1907 45.0256 27.6135 45.3354 24.7983 45.3354C23.9721 45.3354 23.4243 45.3355 23.0831 45.2995C22.7418 45.2636 22.2569 45.2636 21.6059 45.2636V56.2911C21.6418 56.5335 21.4667 56.7356 21.2287 56.7715H14.5655C14.2917 56.7715 14.1525 56.6323 14.1525 56.327L14.157 56.3359ZM21.6463 27.2452V38.7845C22.1267 38.8205 22.5757 38.8519 22.9843 38.8519H24.8027C26.1408 38.8519 27.4833 38.6454 28.7539 38.2323C29.854 37.9225 30.8149 37.2714 31.5692 36.4138C32.2921 35.5562 32.6333 34.3888 32.6333 32.8757C32.6692 31.8116 32.3908 30.7474 31.8431 29.818C31.2594 28.9245 30.4332 28.2375 29.4409 27.8604C28.1702 27.344 26.7963 27.1375 25.3864 27.1734C24.4929 27.1734 23.7027 27.1734 23.0516 27.2093C22.3647 27.1734 21.8842 27.2093 21.6418 27.2452H21.6463Z" fill="#0028FF"/>
<path d="M61.5579 36.6922C60.5297 36.1444 59.4296 35.7628 58.2622 35.5248C56.9916 35.2509 55.7209 35.0803 54.4143 35.0803C53.7273 35.0444 53.0044 35.1476 52.3534 35.3228C51.9089 35.426 51.5272 35.664 51.2893 36.0097C51.1186 36.2836 51.0154 36.6294 51.0154 36.9392C51.0154 37.249 51.1546 37.5588 51.3566 37.8327C51.6664 38.2098 52.0795 38.5197 52.524 38.7621C53.3143 39.1752 54.1404 39.5523 54.9621 39.8936C56.8165 40.5132 58.6035 41.3708 60.2513 42.399C61.3828 43.1219 62.3122 44.0828 62.9633 45.2502C63.511 46.3502 63.7894 47.5535 63.7535 48.7883C63.7894 50.4047 63.309 52.0166 62.4155 53.3546C61.4546 54.7286 60.1121 55.7927 58.5676 56.4123C56.8838 57.1352 54.8229 57.5124 52.3489 57.5124C50.7684 57.5124 49.2239 57.3731 47.6793 57.0678C46.476 56.8613 45.2772 56.4841 44.1771 55.9678C43.9346 55.8286 43.764 55.5906 43.7999 55.3167V49.3405C43.7999 49.2373 43.8359 49.0981 43.9391 49.0307C44.0424 48.9634 44.1457 48.9948 44.2489 49.0667C45.587 49.8569 46.9968 50.4047 48.51 50.7504C49.8165 51.0917 51.1905 51.2667 52.5644 51.2667C53.9384 51.2667 54.796 51.0961 55.4156 50.7863C55.9634 50.5439 56.345 49.9602 56.345 49.345C56.345 48.8646 56.0711 48.4156 55.5188 47.9711C54.9711 47.5266 53.8351 47.0102 52.1513 46.3547C50.4002 45.7351 48.7838 44.9134 47.2752 43.8807C46.2111 43.1264 45.3176 42.1296 44.6665 40.9622C44.1187 39.8621 43.8404 38.6588 43.8763 37.46C43.8763 35.9828 44.2894 34.5729 45.0437 33.3023C45.9013 31.9283 47.1719 30.8283 48.6491 30.1413C50.2655 29.3151 52.2905 28.938 54.7286 28.938C56.1385 28.938 57.5798 29.0413 58.9896 29.2478C60.0178 29.387 61.0146 29.6609 61.944 30.038C62.0832 30.074 62.2179 30.2087 62.2853 30.3479C62.3212 30.487 62.3526 30.6217 62.3526 30.7609V36.3599C62.3526 36.4991 62.2853 36.6338 62.182 36.7012C61.8722 36.7685 61.7016 36.7685 61.5624 36.7012L61.5579 36.6922Z" fill="#0028FF"/>
<path fill-rule="evenodd" clip-rule="evenodd" d="M2.63563 2.63563H6.66316V6.66317H2.63563V2.63563ZM1.36047 0H7.94281C8.69264 0 9.30328 0.615143 9.30328 1.36048V7.94281C9.30328 8.69264 8.68815 9.30327 7.94281 9.30327H1.36047C0.610639 9.30327 0 8.69264 0 7.94281V1.36048C0 0.610653 0.615129 0 1.36047 0Z" fill="#0028FF"/>
<path fill-rule="evenodd" clip-rule="evenodd" d="M75.2793 6.66764H71.2518V2.64012H75.2793V6.66764ZM77.9195 1.36048V7.94281C77.9195 8.69264 77.3043 9.30327 76.559 9.30327H69.9766C69.2268 9.30327 68.6162 8.69264 68.6162 7.94281V1.36048C68.6162 0.610653 69.2313 0 69.9766 0H76.559C77.3088 0 77.9195 0.615143 77.9195 1.36048Z" fill="#0028FF"/>
<path fill-rule="evenodd" clip-rule="evenodd" d="M64.4225 3.56519H31.2145H13.021C12.7786 3.56519 12.581 3.70888 12.581 3.88399V6.35349C12.581 6.5286 12.783 6.66776 13.021 6.66776H64.427C64.9299 6.66776 65.343 6.52411 65.343 6.35349V3.88399C65.343 3.70888 64.9299 3.56519 64.427 3.56519H64.4225Z" fill="#0028FF"/>
<path fill-rule="evenodd" clip-rule="evenodd" d="M2.63563 75.2794V71.2518H6.66316V75.2794H2.63563ZM7.94281 77.9195H1.36047C0.610639 77.9195 0 77.3089 0 76.559V69.9767C0 69.2268 0.615129 68.6162 1.36047 68.6162H7.94281C8.69264 68.6162 9.30328 69.2313 9.30328 69.9767V76.559C9.30328 77.3089 8.68815 77.9195 7.94281 77.9195Z" fill="#0028FF"/>
<path fill-rule="evenodd" clip-rule="evenodd" d="M5.73821 64.4226V31.2146V13.0211C5.73821 12.7786 5.59453 12.5811 5.41942 12.5811H2.94992C2.77481 12.5811 2.63562 12.7831 2.63562 13.0211V64.4226C2.63562 64.9255 2.7793 65.3386 2.94992 65.3386H5.41942C5.59453 65.3386 5.73372 64.9255 5.73372 64.4226H5.73821Z" fill="#0028FF"/>
<path fill-rule="evenodd" clip-rule="evenodd" d="M74.8169 64.4226V31.2146V13.0211C74.8169 12.7786 74.6732 12.5811 74.4981 12.5811H72.0286C71.8535 12.5811 71.7098 12.7831 71.7098 13.0211V64.4226C71.7098 64.9255 71.8535 65.3386 72.0241 65.3386H74.4936C74.6687 65.3386 74.8079 64.9255 74.8079 64.4226H74.8169Z" fill="#0028FF"/>
<path fill-rule="evenodd" clip-rule="evenodd" d="M75.2793 75.2795H71.2518V71.2519H75.2793V75.2795ZM77.9195 69.9723V76.5546C77.9195 77.3045 77.3043 77.9151 76.559 77.9151H69.9766C69.2268 77.9151 68.6162 77.3045 68.6162 76.5546V69.9723C68.6162 69.2225 69.2313 68.6118 69.9766 68.6118H76.559C77.3088 68.6118 77.9195 69.227 77.9195 69.9723Z" fill="#0028FF"/>
<path fill-rule="evenodd" clip-rule="evenodd" d="M64.4225 72.1768H31.2145H13.021C12.7786 72.1768 12.581 72.3204 12.581 72.4956V74.9651C12.581 75.1402 12.783 75.2838 13.021 75.2838H64.427C64.9299 75.2838 65.343 75.1401 65.343 74.9695V72.5C65.343 72.3249 64.9299 72.1857 64.427 72.1857L64.4225 72.1768Z" fill="#0028FF"/>
</svg>
